<svg width="114" height="124" viewBox="0 0 114 124" xmlns="http://www.w3.org/2000/svg"><path d="M76.344 123.168c2.482 0 5.11-.438 6.716-1.168v-3.796c-5.256 0-10.512-3.65-14.308-7.738-6.424-7.008-15.038-18.25-22.192-30.952 11.826-2.774 20.586-13.87 20.586-24.966 0-16.352-12.702-23.944-29.346-23.944-8.614 0-15.476.438-21.9.438-5.84 0-11.68 0-15.33-.146v4.234l5.548 1.022c3.796.73 5.986 2.482 5.986 11.534v57.524c0 9.052-2.19 10.804-5.986 11.534L.57 117.766V122c3.942-.146 10.804-.438 17.666-.438 6.57 0 15.038.292 18.688.438v-4.234l-7.592-1.022c-3.942-.584-5.986-2.482-5.986-11.534V80.828c3.504.292 6.57.292 11.242.292 8.906 15.914 17.374 27.886 22.192 33.434 4.38 5.256 11.096 8.614 19.564 8.614zM33.858 74.55c-4.964 0-7.154-.146-10.512-.438V37.466c3.358-.292 7.884-.292 11.826-.292 12.264 0 19.564 6.424 19.564 18.104 0 11.534-7.884 19.272-20.878 19.272zm44.56-36.852A40.494 40.494 0 0 1 78.024 35a45.87 45.87 0 0 1-.252-3.705 158.605 158.605 0 0 1-.072-5.18c0-2.013.024-3.74.072-5.178a45.87 45.87 0 0 1 .252-3.705c.12-1.03.25-1.93.395-2.698.14-.767.33-1.51.57-2.23 1.24-3.79 3.31-6.642 6.18-8.56 2.88-1.92 6.4-2.88 10.57-2.88 2.16 0 4.1.253 5.82.756 1.727.505 3.26 1.2 4.604 2.088a15.286 15.286 0 0 1 3.46 3.092c.96 1.18 1.75 2.44 2.375 3.78.24.43.167.77-.217 1.01l-5.32 2.2c-.44.24-.77.12-1.01-.36-1.2-2.204-2.21-3.66-3.89-4.712-1.68-1.055-3.24-1.545-5.83-1.545-2.78 0-4.05.55-5.8 1.796-1.75 1.24-3.01 2.79-3.78 5.14-.14.43-.287.96-.43 1.58-.145.62-.25 1.39-.325 2.3a80.63 80.63 0 0 0-.18 3.34 134.55 134.55 0 0 0-.07 4.78c0 1.87.023 3.465.07 4.784.05 1.32.11 2.434.18 3.345.07.91.18 1.68.323 2.303.145.62.29 1.15.43 1.58.77 2.35 1.845 3.63 3.413 4.665 1.564 1.036 3.38 1.8 6.16 1.8 2.493 0 4.774-.71 6.254-1.79 1.48-1.077 2.7-2.5 3.25-4.46.24-.814.56-1.845.75-3.09.19-1.25.187-2.58.187-4.408 0-.29-.144-.433-.43-.433h-8.49c-.48 0-.72-.24-.72-.72v-4.87c0-.48.24-.72.72-.72h15.61c.48 0 .72.24.72.72V29c0 2.206-.007 4.256-.223 6.15-.213 1.894-.513 3.54-.9 4.74-1.195 3.74-3.09 6.416-5.99 8.406-2.9 1.99-6.65 3.076-10.724 3.076-4.178 0-7.7-.96-10.58-2.878-2.877-1.92-4.94-4.773-6.186-8.56a16.99 16.99 0 0 1-.575-2.23z" fill="#FFF" fill-rule="evenodd"/></svg>